<?xml version="1.0" encoding="UTF-8" standalone="no"?>
<!-- Created with Inkscape (http://www.inkscape.org/) -->

<svg
   width="172.66013mm"
   height="50.842052mm"
   viewBox="0 0 172.66013 50.842052"
   version="1.1"
   id="svg1"
   xml:space="preserve"
   sodipodi:docname="logo-small.svg"
   inkscape:version="1.4.2 (1:1.4.2+202505120737+ebf0e940d0)"
   xmlns:inkscape="http://www.inkscape.org/namespaces/inkscape"
   xmlns:sodipodi="http://sodipodi.sourceforge.net/DTD/sodipodi-0.dtd"
   xmlns:xlink="http://www.w3.org/1999/xlink"
   xmlns="http://www.w3.org/2000/svg"
   xmlns:svg="http://www.w3.org/2000/svg"><sodipodi:namedview
     id="namedview1"
     pagecolor="#ffffff"
     bordercolor="#000000"
     borderopacity="0.25"
     inkscape:showpageshadow="2"
     inkscape:pageopacity="0.0"
     inkscape:pagecheckerboard="0"
     inkscape:deskcolor="#d1d1d1"
     inkscape:document-units="mm"
     showguides="true"
     inkscape:zoom="0.61717167"
     inkscape:cx="-234.13259"
     inkscape:cy="-382.38956"
     inkscape:window-width="2560"
     inkscape:window-height="1403"
     inkscape:window-x="0"
     inkscape:window-y="0"
     inkscape:window-maximized="1"
     inkscape:current-layer="layer1"><sodipodi:guide
       position="24.729861,8.118807"
       orientation="0,-1"
       id="guide1"
       inkscape:locked="false" /></sodipodi:namedview><defs
     id="defs1"><linearGradient
       id="linearGradient20"><stop
         style="stop-color:#ffffaf;stop-opacity:1;"
         offset="0"
         id="stop17" /><stop
         style="stop-color:#ffc693;stop-opacity:1;"
         offset="0.51721001"
         id="stop18" /><stop
         style="stop-color:#ff6e68;stop-opacity:1;"
         offset="0.77660072"
         id="stop19" /><stop
         style="stop-color:#ff4d99;stop-opacity:1;"
         offset="1"
         id="stop20" /></linearGradient><linearGradient
       id="linearGradient12"><stop
         style="stop-color:#ffffaf;stop-opacity:1;"
         offset="0"
         id="stop12" /><stop
         style="stop-color:#ffc693;stop-opacity:1;"
         offset="0.5264852"
         id="stop14" /><stop
         style="stop-color:#ff6e68;stop-opacity:1;"
         offset="0.68131727"
         id="stop15" /><stop
         style="stop-color:#ff4d99;stop-opacity:1;"
         offset="1"
         id="stop13" /></linearGradient><linearGradient
       id="linearGradient6"><stop
         style="stop-color:#ffffaf;stop-opacity:1;"
         offset="0.29102337"
         id="stop6" /><stop
         style="stop-color:#ff6e68;stop-opacity:1;"
         offset="0.70154393"
         id="stop8" /><stop
         style="stop-color:#ff568b;stop-opacity:1;"
         offset="0.79035079"
         id="stop9" /><stop
         style="stop-color:#ff3faf;stop-opacity:1;"
         offset="1"
         id="stop7" /></linearGradient><linearGradient
       xlink:href="#linearGradient6"
       id="linearGradient7"
       x1="123.09988"
       y1="19.222982"
       x2="120.59232"
       y2="183.01218"
       gradientUnits="userSpaceOnUse"
       spreadMethod="pad"
       gradientTransform="matrix(0.26458333,0,0,0.26458333,11.243194,23.029818)" /><linearGradient
       xlink:href="#linearGradient12"
       id="linearGradient13"
       x1="242.15675"
       y1="28.899275"
       x2="241.5685"
       y2="171.48138"
       gradientUnits="userSpaceOnUse"
       gradientTransform="matrix(0.26458333,0,0,0.26458333,11.243194,23.029818)" /><linearGradient
       xlink:href="#linearGradient20"
       id="linearGradient17"
       x1="349.98691"
       y1="17.577864"
       x2="351.76663"
       y2="169.12837"
       gradientUnits="userSpaceOnUse"
       gradientTransform="matrix(0.26458333,0,0,0.26458333,11.243194,23.029818)" /><linearGradient
       xlink:href="#linearGradient20"
       id="linearGradient22"
       x1="468.96893"
       y1="36.990246"
       x2="467.63788"
       y2="162.96161"
       gradientUnits="userSpaceOnUse"
       gradientTransform="matrix(0.26458333,0,0,0.26458333,11.243194,23.029818)" /><linearGradient
       xlink:href="#linearGradient20"
       id="linearGradient24"
       x1="604.21289"
       y1="48.880013"
       x2="610.59894"
       y2="167.91695"
       gradientUnits="userSpaceOnUse"
       gradientTransform="matrix(0.26458333,0,0,0.26458333,11.243194,23.029818)" /><clipPath
       clipPathUnits="userSpaceOnUse"
       id="clipPath24"><rect
         style="font-variation-settings:'MORF' 7.7, 'SHLN' 25;fill:#000000;stroke-width:0.627944;stroke-linecap:square;stroke-miterlimit:0;stroke-dasharray:1.88383, 0.627944"
         id="rect25"
         width="182.5766"
         height="15.957315"
         x="-9.5970764"
         y="110.83067" /></clipPath></defs><g
     id="layer1"
     transform="translate(-24.593018,-25.737699)"><g
       id="g1"><path
         style="fill:#000000;fill-opacity:1;stroke:none;stroke-width:0.687001"
         d="m 28.210199,64.026234 v 7.475508 h 7.368332 l 19.479193,-4.528177 v 4.474589 h 9.619022 l 24.930346,-4.349285 v 4.547082 h 7.27533 l 19.828138,-4.618797 v 4.554969 h 25.1863 l 12.08407,-4.126267 v 4.019092 h 9.7262 l 28.02645,-5.278406 v -3.80474 z"
         id="path1" /><text
         xml:space="preserve"
         style="font-style:normal;font-variant:normal;font-weight:normal;font-stretch:normal;font-size:70.5556px;line-height:0;font-family:Honk;-inkscape-font-specification:'Honk, @MORF=7.7,SHLN=25';font-variant-ligatures:normal;font-variant-caps:normal;font-variant-numeric:normal;font-variant-east-asian:normal;font-variation-settings:'MORF' 7.7, 'SHLN' 25;text-align:justify;letter-spacing:0.0079375px;word-spacing:0.0105833px;fill:#000000;stroke-width:0.627944;stroke-linecap:square;stroke-miterlimit:0;stroke-dasharray:1.88383, 0.627944"
         x="29.449621"
         y="67.136871"
         id="text6-5"><tspan
           id="tspan6-9"
           style="font-style:normal;font-variant:normal;font-weight:normal;font-stretch:normal;font-size:70.5556px;font-family:Honk;-inkscape-font-specification:'Honk, @MORF=7.7,SHLN=25';font-variant-ligatures:normal;font-variant-caps:normal;font-variant-numeric:normal;font-variant-east-asian:normal;font-variation-settings:'MORF' 7.7, 'SHLN' 25;stroke-width:0.627944"
           x="29.449621"
           y="67.136871">tatva</tspan></text><path
         style="font-variation-settings:'MORF' 7.7, 'SHLN' 25;fill:url(#linearGradient7);stroke-width:0.801391;stroke-linecap:square;stroke-miterlimit:0;stroke-dasharray:2.40417, 0.801391"
         d="M 32.56723,60.816551 30.996604,57.408135 V 43.08913 28.770125 h 6.077973 6.077972 v 3.545484 3.545484 h 6.077972 6.077974 v 5.19431 5.19431 l -6.584471,-0.178655 -6.584469,-0.178654 v 1.43197 1.43197 l 6.584469,-0.245623 6.584471,-0.245622 v 7.979933 7.979931 H 44.723174 34.137854 Z"
         id="path6" /><path
         style="font-variation-settings:'MORF' 7.7, 'SHLN' 25;fill:url(#linearGradient13);stroke-width:0.801391;stroke-linecap:square;stroke-miterlimit:0;stroke-dasharray:2.40417, 0.801391"
         d="m 59.67612,60.665529 -1.666304,-3.559434 v -4.882192 c 0,-3.603787 0.107352,-4.882195 0.40998,-4.882195 0.631997,0 13.501889,-1.675975 14.376328,-1.87215 0.690703,-0.154955 0.748978,-0.307529 0.546122,-1.429897 -0.1249,-0.691038 -0.244917,-1.278072 -0.266711,-1.304521 -0.0218,-0.02645 -3.420494,0.518772 -7.552671,1.211601 l -7.513048,1.259687 v -4.672667 -4.672668 h 14.301269 14.301271 l 1.737823,3.704931 1.737823,3.704931 V 53.747958 64.224963 H 75.715211 61.342421 Z M 74.555408,54.09501 c 0,-1.33608 -0.01368,-1.350635 -1.266246,-1.348259 -0.696433,0.0013 -2.2919,0.09927 -3.545482,0.21766 -2.213962,0.209095 -2.27924,0.242067 -2.27924,1.151289 0,0.514816 0.189936,1.012669 0.422081,1.106342 0.232143,0.09367 1.827612,0.182309 3.545483,0.196972 l 3.123404,0.02666 z"
         id="path12" /><path
         style="font-variation-settings:'MORF' 7.7, 'SHLN' 25;fill:url(#linearGradient17);stroke-width:0.801391;stroke-linecap:square;stroke-miterlimit:0;stroke-dasharray:2.40417, 0.801391"
         d="m 94.393234,60.678523 -1.60391,-3.544787 V 42.951931 28.770125 h 6.077974 6.077972 v 3.545484 3.545484 h 6.07797 6.07797 v 5.183511 5.18351 l -6.58447,-0.165323 -6.58447,-0.165324 v 1.434342 1.434342 l 6.58447,-0.246887 6.58447,-0.246888 v 7.976294 7.976293 l -10.55203,-7.93e-4 -10.552037,-7.94e-4 z"
         id="path15" /><path
         style="font-variation-settings:'MORF' 7.7, 'SHLN' 25;fill:url(#linearGradient22);stroke-width:0.801391;stroke-linecap:square;stroke-miterlimit:0;stroke-dasharray:2.40417, 0.801391"
         d="m 124.59413,58.906738 -4.75722,-5.318226 -0.0172,-8.863709 -0.0172,-8.86371 h 6.46605 6.46604 L 132.49302,43.658 c -0.13287,4.288299 -0.32376,8.011056 -0.4242,8.272795 -0.14036,0.365786 0.16753,0.47589 1.33079,0.47589 h 1.51341 l -0.17569,-8.272796 -0.17568,-8.272796 h 10.01019 10.01018 v 8.871375 8.871374 l -4.64289,5.298012 -4.6429,5.298011 -7.97245,0.01254 -7.97245,0.01254 z"
         id="path20" /><path
         style="font-variation-settings:'MORF' 7.7, 'SHLN' 25;fill:url(#linearGradient24);stroke-width:0.801391;stroke-linecap:square;stroke-miterlimit:0;stroke-dasharray:2.40417, 0.801391"
         d="m 159.19166,60.816551 -1.57063,-3.408416 v -5.008917 -5.008916 l 1.94158,-0.240791 c 1.06786,-0.132434 4.44873,-0.563376 7.51305,-0.957648 l 5.57147,-0.716858 0.088,-1.008223 c 0.0484,-0.554523 -0.0276,-1.17971 -0.16884,-1.389305 -0.18548,-0.275254 -2.29631,-0.03553 -7.60101,0.863225 l -7.34422,1.244306 v -4.661957 -4.661958 l 14.26635,0.0084 14.26636,0.0084 1.6039,3.555633 1.60391,3.555633 v 10.617874 10.617871 h -14.29963 -14.29964 z m 14.6373,-6.721541 c 0,-1.342091 -0.008,-1.350661 -1.30113,-1.350661 -0.71562,0 -2.23511,0.09762 -3.37665,0.216937 -1.9743,0.206354 -2.07552,0.26125 -2.07552,1.125551 0,0.499737 0.10129,1.009914 0.22511,1.133723 0.1238,0.123812 1.6433,0.22511 3.37665,0.22511 h 3.15154 z"
         id="path22" /></g></g></svg>
